# xmcd
#
# Track frame offsets:
#	150
#	21219
#	40407
#	63602
#	80511
#	102504
#	120227
#	134554
#	153969
#	175680
#	190903
#
# Disc length: 2776 seconds
#
# Revision: 1
# Processed by: cddbd v1.5.1PL0 Copyright (c) Steve Scherf et al.
# Submitted via: VUPlayer 2.4
#
DISCID=900ad60b
DTITLE=Lava - Alibi
DYEAR=2005
DGENRE=Jazz
TTITLE0=Closet
TTITLE1=Cover Me
TTITLE2=Tears Are Not Enough
TTITLE3=Alibi
TTITLE4=A Matter Of Time
TTITLE5=Dangerous Game
TTITLE6=Lonely Planet
TTITLE7=Change
TTITLE8=Breaking Away
TTITLE9=Missing You
TTITLE10=Wendy's Painting Pictures
EXTD=YEAR: 2005
EXTT0=
EXTT1=
EXTT2=
EXTT3=
EXTT4=
EXTT5=
EXTT6=
EXTT7=
EXTT8=
EXTT9=
EXTT10=
PLAYORDER=
